<svg width="96" height="100" viewBox="0 0 96 100" fill="none" xmlns="http://www.w3.org/2000/svg">
<path d="M3.63233 33.5083C1.62936 33.5083 0 31.8789 0 29.876V23.3403C0 21.9056 0.845798 20.6031 2.15603 20.022L46.5198 0.311343C47.4565 -0.103781 48.5332 -0.103781 49.4698 0.311343L93.8413 20.022C95.1516 20.6031 96 21.9082 96 23.3403V29.876C96 31.8789 94.3706 33.5083 92.3677 33.5083H3.63233ZM47.5732 2.68274L3.20943 22.3934C2.83581 22.5594 2.59193 22.933 2.59193 23.3403V29.876C2.59193 30.4468 3.05635 30.9138 3.62974 30.9138H92.3625C92.9333 30.9138 93.4003 30.4494 93.4003 29.876V23.3403C93.4003 22.9304 93.159 22.5594 92.7828 22.3934L48.4112 2.68274C48.144 2.56339 47.8378 2.56339 47.568 2.68274H47.5732Z" fill="white"/>
<path d="M11.6754 80.2097C10.9593 80.2097 10.3781 79.6285 10.3781 78.9124V39.9946C10.3781 39.2785 10.9593 38.6973 11.6754 38.6973C12.3914 38.6973 12.9726 39.2785 12.9726 39.9946V78.9124C12.9726 79.6285 12.3914 80.2097 11.6754 80.2097Z" fill="white"/>
<path d="M22.0535 80.2097C21.3374 80.2097 20.7562 79.6285 20.7562 78.9124V39.9946C20.7562 39.2785 21.3374 38.6973 22.0535 38.6973C22.7695 38.6973 23.3507 39.2785 23.3507 39.9946V78.9124C23.3507 79.6285 22.7695 80.2097 22.0535 80.2097Z" fill="white"/>
<path d="M73.9439 80.2097C73.2279 80.2097 72.6467 79.6285 72.6467 78.9124V39.9946C72.6467 39.2785 73.2279 38.6973 73.9439 38.6973C74.66 38.6973 75.2412 39.2785 75.2412 39.9946V78.9124C75.2412 79.6285 74.66 80.2097 73.9439 80.2097Z" fill="white"/>
<path d="M84.322 80.2097C83.606 80.2097 83.0248 79.6285 83.0248 78.9124V39.9946C83.0248 39.2785 83.606 38.6973 84.322 38.6973C85.0381 38.6973 85.6193 39.2785 85.6193 39.9946V78.9124C85.6193 79.6285 85.0381 80.2097 84.322 80.2097Z" fill="white"/>
<path d="M92.3651 99.609H3.63233C1.62936 99.609 0 97.9797 0 95.9767V89.0285C0 87.0256 1.62936 85.3962 3.63233 85.3962H92.3651C94.368 85.3962 95.9974 87.0256 95.9974 89.0285V95.9767C95.9974 97.9797 94.368 99.609 92.3651 99.609ZM3.63233 87.9933C3.06154 87.9933 2.59452 88.4578 2.59452 89.0311V95.9793C2.59452 96.5501 3.05894 97.0171 3.63233 97.0171H92.3651C92.9359 97.0171 93.4029 96.5527 93.4029 95.9793V89.0311C93.4029 88.4603 92.9385 87.9933 92.3651 87.9933H3.63233Z" fill="white"/>
<path d="M64.8631 80.2097H31.1343V77.5867C31.1343 71.1626 34.3359 65.1615 39.4886 61.9261C44.7374 58.6259 51.26 58.6259 56.5139 61.9261C61.664 65.1667 64.8631 71.1652 64.8631 77.5867V80.2097ZM33.7288 77.6152H62.2686V77.5867C62.2686 72.05 59.534 66.8895 55.1336 64.1211C50.7333 61.3553 45.2667 61.3553 40.869 64.1211C36.4635 66.8869 33.7288 72.0448 33.7288 77.5867V77.6152Z" fill="white"/>
<path d="M47.996 23.1302C44.4234 23.1302 41.5149 20.2243 41.5149 16.649C41.5149 13.0738 44.4234 10.1575 47.996 10.1575C51.5687 10.1575 54.4875 13.0712 54.4875 16.649C54.4875 20.2269 51.5765 23.1302 47.996 23.1302ZM47.996 12.7521C45.8166 12.7521 44.1094 14.4645 44.1094 16.649C44.1094 18.8336 45.8166 20.5356 47.996 20.5356C50.1754 20.5356 51.893 18.8284 51.893 16.649C51.893 14.4696 50.1806 12.7521 47.996 12.7521Z" fill="white"/>
<path d="M47.9934 56.859C42.9912 56.859 38.9204 52.7882 38.9204 47.7859C38.9204 42.7837 42.9912 38.6973 47.9934 38.6973C52.9957 38.6973 57.0821 42.7759 57.0821 47.7859C57.0821 52.796 53.0061 56.859 47.9934 56.859ZM47.9934 41.2918C44.4208 41.2918 41.5149 44.2055 41.5149 47.7859C41.5149 51.3664 44.4208 54.2645 47.9934 54.2645C51.5661 54.2645 54.4875 51.4183 54.4875 47.7859C54.4875 44.1536 51.5739 41.2918 47.9934 41.2918Z" fill="white"/>
</svg>
