<svg width="82" height="96" viewBox="0 0 82 96" fill="none" xmlns="http://www.w3.org/2000/svg">
<path d="M40.9087 3.73785C51.4004 12.6174 63.43 17.0457 78.758 17.6735C78.778 19.1971 78.8094 20.7237 78.8408 22.3444C79.1061 35.8862 79.38 49.8875 74.712 62.4906C69.3934 76.8514 58.334 86.8237 40.9087 92.9755C23.4835 86.8266 12.4269 76.8542 7.10827 62.4934C2.43738 49.8903 2.71416 35.8862 2.97951 22.3444V22.2873C3.0109 20.775 3.04229 19.2114 3.06226 17.6763C18.3903 17.0486 30.4171 12.6202 40.9059 3.7407M40.9059 0.00285332L39.0626 1.56362C29.0846 10.0066 17.6056 14.221 2.94527 14.823L0.246033 14.9343L0.208939 17.6335C0.188966 19.1287 0.15758 20.6552 0.126193 22.2302V22.2901C-0.144873 36.0974 -0.427351 50.3725 4.429 63.4836C10.0615 78.6889 21.683 89.2177 39.9557 95.6662L40.9059 96L41.856 95.6662C60.1315 89.2148 71.7531 78.6889 77.3856 63.4836C82.2419 50.3725 81.9623 36.0945 81.6912 22.2873C81.6598 20.6923 81.6285 19.1486 81.6085 17.6335L81.5714 14.9343L78.8722 14.823C64.2089 14.221 52.7329 10.0066 42.7491 1.56077L40.9059 0V0.00285332Z" fill="white"/>
<path d="M33.0621 66.0687C31.7924 66.0687 30.6282 65.4866 29.8664 64.4708L22.6475 54.8465C22.1738 54.216 22.3022 53.3229 22.9328 52.8492C23.5634 52.3756 24.4565 52.504 24.9301 53.1346L32.149 62.7588C32.3659 63.0498 32.6997 63.2153 33.0621 63.2153C33.4245 63.2153 33.7583 63.0498 33.9751 62.7588L59.7406 28.4048C60.2143 27.7742 61.1074 27.6458 61.738 28.1195C62.3685 28.5931 62.4969 29.4862 62.0233 30.1168L36.2578 64.4708C35.496 65.4866 34.3318 66.0687 33.0621 66.0687Z" fill="white"/>
</svg>
