<svg width="96" height="96" viewBox="0 0 96 96" fill="none" xmlns="http://www.w3.org/2000/svg">
<path d="M36.8219 2.59474C47.7002 2.59474 56.5479 11.3234 56.5479 22.0552C56.5479 32.7871 47.7002 41.5158 36.8219 41.5158C25.9437 41.5158 17.0959 32.7871 17.0959 22.0552C17.0959 11.3234 25.9437 2.59474 36.8219 2.59474ZM36.8219 0C24.4945 0 14.4658 9.89372 14.4658 22.0552C14.4658 34.2168 24.4945 44.1105 36.8219 44.1105C49.1494 44.1105 59.1781 34.2168 59.1781 22.0552C59.1781 9.89372 49.1494 0 36.8219 0Z" fill="#58595B"/>
<path d="M34.9914 89.5184H0V70.0085C0 59.2508 8.31122 50.4987 18.5267 50.4987H43.3973C44.1232 50.4987 44.7123 51.08 44.7123 51.7961C44.7123 52.5122 44.1232 53.0935 43.3973 53.0935H18.5267C9.76042 53.0935 2.63014 60.6805 2.63014 70.0085V86.9236H34.9914C35.7173 86.9236 36.3064 87.5048 36.3064 88.221C36.3064 88.9371 35.7173 89.5184 34.9914 89.5184Z" fill="#58595B"/>
<path d="M71.0847 64.3832C74.1804 64.3832 76.7001 66.9286 76.7001 70.0578C76.7001 73.1871 74.1804 75.7325 71.0847 75.7325C67.989 75.7325 65.4694 73.1871 65.4694 70.0578C65.4694 66.9286 67.989 64.3832 71.0847 64.3832ZM71.0847 61.7884C66.5372 61.7884 62.8392 65.4989 62.8392 70.0578C62.8392 74.6168 66.5398 78.3273 71.0847 78.3273C75.6296 78.3273 79.3302 74.6168 79.3302 70.0578C79.3302 65.4989 75.6296 61.7884 71.0847 61.7884Z" fill="#58595B"/>
<path d="M73.6886 46.7052L74.2961 52.7977C74.4145 53.9912 75.2272 55.0343 76.3713 55.4547C78.0309 56.0592 79.5774 56.9622 80.9688 58.1324L80.9793 58.1428C81.5605 58.6254 82.297 58.8927 83.0518 58.8927C83.5147 58.8927 83.9645 58.7967 84.3879 58.6047L89.906 56.1111L92.5519 60.7038L87.602 64.2664C86.613 64.9851 86.1265 66.1709 86.3342 67.3593C86.4736 68.1559 86.6157 69.1004 86.6157 70.0656C86.6157 71.0309 86.4736 71.9702 86.3342 72.7642V72.7797C86.1344 73.9577 86.6341 75.1721 87.6046 75.8701L92.5519 79.43L89.906 84.0227L84.3879 81.5266C83.9671 81.3346 83.52 81.2386 83.0571 81.2386C82.2996 81.2386 81.5658 81.5032 80.9819 81.9884C79.5748 83.1664 78.023 84.0694 76.3739 84.674C75.2324 85.0943 74.4171 86.1348 74.2987 87.331L73.6912 93.4105H68.473L67.8628 87.3336C67.7444 86.1374 66.9291 85.0969 65.7876 84.6766C64.128 84.0668 62.5788 83.1638 61.1796 81.991C60.5984 81.5058 59.8619 81.2386 59.1044 81.2386C58.6731 81.2386 58.2496 81.3216 57.8472 81.4851L57.7525 81.5266L52.2555 84.0097L49.6096 79.4171L54.5595 75.8545C55.5485 75.1357 56.0351 73.9525 55.8273 72.759C55.6879 71.9624 55.5458 71.0179 55.5458 70.0527C55.5458 69.0874 55.6879 68.1481 55.8273 67.3541V67.3386C56.0272 66.1606 55.5274 64.9462 54.5569 64.2482L49.6096 60.6883L52.2555 56.0956L57.7762 58.5917C58.1971 58.7837 58.6442 58.8797 59.1097 58.8797C59.8672 58.8797 60.6036 58.6125 61.1822 58.1273C62.5894 56.9492 64.1412 56.0463 65.7902 55.4417C66.9317 55.0214 67.7471 53.9809 67.8654 52.7847L68.473 46.7052H73.6886ZM76.0741 44.1105H66.0901L65.2511 52.5304C65.23 52.7458 65.0827 52.9326 64.8776 53.0078C62.9418 53.7188 61.127 54.7749 59.4858 56.1475C59.3806 56.2357 59.2491 56.285 59.115 56.285C59.0361 56.285 58.9572 56.2668 58.8835 56.2331L51.1667 52.7406L46.1694 61.4148L53.013 66.3396C53.1892 66.4667 53.2787 66.6899 53.2392 66.9078C53.0814 67.803 52.921 68.885 52.921 70.0475C52.921 71.2099 53.084 72.2919 53.2418 73.1949C53.2787 73.4103 53.1893 73.6256 53.0078 73.7579L46.1694 78.6775L51.1641 87.3518L58.8519 83.8774C58.9361 83.8437 59.0203 83.8255 59.1097 83.8255C59.2438 83.8255 59.3753 83.8748 59.4806 83.963C61.1112 85.3331 62.9287 86.3891 64.875 87.1027C65.0801 87.1779 65.2274 87.3647 65.2484 87.5801L66.0927 96H76.0767L76.9157 87.5801C76.9367 87.3647 77.084 87.1779 77.2892 87.1027C79.225 86.3917 81.0398 85.3357 82.681 83.963C82.7862 83.8774 82.9177 83.8281 83.0545 83.8281C83.136 83.8281 83.2149 83.8463 83.2886 83.8774L91.0027 87.3673L96 78.6931L89.1564 73.7683C88.9802 73.6412 88.8907 73.418 88.9302 73.2001C89.088 72.3049 89.2484 71.2229 89.2484 70.0604C89.2484 68.898 89.0854 67.816 88.9276 66.913C88.8907 66.6977 88.9802 66.4823 89.1616 66.35L96 61.4304L91.0054 52.7562L83.2964 56.2383C83.2201 56.272 83.1386 56.2902 83.0571 56.2902C82.9203 56.2902 82.7862 56.2409 82.6783 56.1527C81.0529 54.7852 79.2381 53.7266 77.2866 53.0156C77.084 52.9404 76.9367 52.7536 76.9157 52.5408L76.0767 44.1079L76.0741 44.1105Z" fill="#58595B"/>
</svg>
