<svg width="96" height="84" viewBox="0 0 96 84" fill="none" xmlns="http://www.w3.org/2000/svg">
<path d="M95.28 24.7806L71.3002 0.719994C70.8379 0.255152 70.2214 0 69.5646 0C68.9078 0 68.2939 0.257678 67.829 0.719994L54.6417 13.9528C54.0985 14.4985 54.0985 15.3802 54.6417 15.9259C55.1849 16.4716 56.0665 16.4716 56.6097 15.9259L69.5646 2.92546L93.0821 26.5213L50.7133 69.0341L45.7768 64.08C45.9764 63.8526 46.1735 63.6202 46.363 63.3802L47.1208 62.4177C47.6008 62.549 48.1263 62.4985 48.5937 62.2434C49.9023 61.536 51.5267 61.536 52.8328 62.2434C53.136 62.4076 53.4644 62.4884 53.7878 62.4884C54.2981 62.4884 54.8008 62.2889 55.1823 61.9049L58.4084 58.6686C58.9516 58.1229 58.9516 57.2413 58.4084 56.6956C57.8652 56.1499 56.9836 56.1499 56.4429 56.6956L53.6211 59.5251C52.4185 58.9945 51.115 58.8101 49.8392 58.9667L50.8219 57.7213L57.0998 51.4232L62.693 45.8097C64.4337 45.3575 66.0202 44.448 67.2985 43.1646C71.2471 39.2034 71.2471 32.7562 67.2985 28.7949C63.3499 24.8337 56.9255 24.8337 52.9794 28.7949C50.3469 31.4375 49.397 35.3608 50.4429 38.8926C49.2758 39.6 48.2147 40.4084 47.3457 41.28L41.7954 46.8505C41.4391 47.2093 40.9591 47.4063 40.4488 47.4063H40.4034C39.648 47.4063 38.5693 46.56 38.261 45.7642V40.9288L66.6593 12.4345C68.5162 13.253 70.6181 13.253 72.4724 12.4345L83.6084 23.6059C82.7924 25.4678 82.7924 27.5773 83.6084 29.4392L61.0914 52.0295C60.5482 52.5751 60.5482 53.4568 61.0914 54.0025C61.3642 54.2754 61.7179 54.4118 62.0741 54.4118C62.4303 54.4118 62.7865 54.2754 63.0569 54.0025L85.9781 31.0029C86.6021 30.3764 86.736 29.4291 86.3141 28.6459C85.6067 27.3347 85.6067 25.7052 86.3141 24.3941C86.7385 23.6109 86.6021 22.661 85.9781 22.037L74.0337 10.0522C73.4097 9.42569 72.4648 9.28925 71.6842 9.71367C70.3756 10.4236 68.7511 10.4236 67.445 9.71367C66.6644 9.28925 65.7196 9.42569 65.0956 10.0522L38.2585 36.9802V34.3377L51.9057 20.645C52.2821 20.2661 52.4109 19.7027 52.2341 19.1975C52.0573 18.6922 51.6076 18.3309 51.077 18.2728C48.7554 18.0126 46.4741 17.8231 44.64 17.6741C43.3819 17.5705 42.389 17.4897 41.7954 17.4164C39.9688 17.1966 38.1878 17.8282 36.3537 19.3465L24.2172 28.9541C24.2172 28.9541 24.1996 28.9667 24.192 28.9743C22.2493 30.5861 20.8674 32.7284 20.1954 35.1714C18.9372 39.744 16.2189 48.0606 14.5061 51.4484L8.59453 57.3827L8.37471 57.1604C7.79366 56.5768 7.02064 56.256 6.19959 56.256C5.37854 56.256 4.60546 56.5768 4.0244 57.1604L0.901912 60.2956C0.320859 60.8792 0 61.6522 0 62.4758C0 63.2994 0.320859 64.0749 0.901912 64.6585L18.6518 82.4665C19.2329 83.0501 20.0034 83.3709 20.8244 83.3709C21.6455 83.3709 22.4185 83.0501 22.9996 82.4665L26.1221 79.3314C26.7031 78.7503 27.024 77.9747 27.024 77.1512C27.024 76.3276 26.7031 75.552 26.1246 74.9684L25.8973 74.741L27.3701 73.2632C28.0042 72.6265 28.7949 72.1592 29.6564 71.9065C29.6766 71.9015 29.6943 71.8964 29.712 71.8888L38.6273 68.8775C40.5094 68.2307 42.2451 67.2581 43.7709 66.0177L48.9777 71.2421C49.4425 71.7069 50.0564 71.9621 50.7133 71.9621C51.3701 71.9621 51.984 71.7069 52.4488 71.2421L95.2825 28.2644C95.7473 27.7996 96 27.1806 96 26.5238C96 25.8669 95.7448 25.248 95.2825 24.7832L95.28 24.7806ZM56.1145 48.4623L55.0964 47.4392C54.7402 47.0804 54.7402 46.4994 55.0964 46.1406L57.0871 44.1448C57.6884 43.541 58.4791 43.2379 59.2724 43.2379C59.8282 43.2379 60.3865 43.3869 60.8766 43.6876L56.117 48.4623H56.1145ZM54.9423 30.7705C57.8072 27.8956 62.4657 27.8981 65.3305 30.7705C68.0059 33.4535 68.1802 37.7078 65.861 40.6004C65.856 39.5621 65.4416 38.5945 64.6383 37.7659C63.7515 36.7023 62.304 36.0884 60.4472 35.9899C58.1987 35.8661 55.4905 36.4901 52.9718 37.5865C52.4412 35.1638 53.1587 32.5617 54.9423 30.7705V30.7705ZM24.1516 77.3583L21.029 80.4935C20.9583 80.5642 20.8775 80.5794 20.8219 80.5794C20.7663 80.5794 20.6855 80.5642 20.6148 80.4935L2.86486 62.6855C2.79413 62.6147 2.77895 62.5314 2.77895 62.4758C2.77895 62.4202 2.79413 62.3394 2.86486 62.2686L5.98736 59.1335C6.05809 59.0627 6.13895 59.0476 6.19453 59.0476C6.25011 59.0476 6.33097 59.0627 6.40171 59.1335L24.1516 76.9415C24.2223 77.0122 24.2375 77.0956 24.2375 77.1512C24.2375 77.2067 24.2223 77.2876 24.1516 77.3583ZM45.7516 59.6514L44.1777 61.6497C43.7709 62.1676 43.3288 62.6501 42.8589 63.1023C42.8539 63.1074 42.8489 63.1124 42.8438 63.1175C42.8413 63.12 42.8362 63.1251 42.8337 63.1276C41.3785 64.5145 39.643 65.5756 37.728 66.2349L28.8455 69.2362C27.5469 69.6202 26.3545 70.3301 25.3971 71.2901L23.9242 72.768L10.555 59.3532L16.6206 53.2674C16.7192 53.1663 16.8025 53.0526 16.8682 52.9288C18.6872 49.4501 21.5217 40.8126 22.8707 35.9141C23.3886 34.032 24.4522 32.3798 25.9478 31.1343L38.0842 21.5293C38.0842 21.5293 38.1019 21.5166 38.1095 21.5091C39.3626 20.4682 40.3958 20.0615 41.4593 20.1903C42.1035 20.2686 43.1217 20.352 44.4076 20.4581C45.4408 20.544 46.6206 20.64 47.8636 20.7562L35.8813 32.7789C35.6211 33.0417 35.4745 33.3954 35.4745 33.7642V45.984C35.4745 46.1053 35.4922 46.2265 35.5225 46.3427C36.0682 48.3991 38.3469 50.2004 40.3983 50.2004H40.4438C41.6994 50.2004 42.8766 49.7128 43.7583 48.8261L49.3086 43.2581C50.2181 42.3461 51.3979 41.5074 52.6939 40.8101C52.699 40.8101 52.704 40.8076 52.709 40.8051C52.7671 40.7798 52.8227 40.747 52.8758 40.7141C55.3086 39.4383 58.1128 38.6577 60.2956 38.7764C61.3617 38.8345 62.1499 39.1175 62.5187 39.5773C62.549 39.6152 62.5844 39.653 62.6172 39.6884C63.1099 40.181 63.1074 40.5802 63.0518 40.8707C63.0089 41.0956 62.9052 41.3432 62.7537 41.6009C60.4572 39.8981 57.1958 40.0876 55.1166 42.1743L53.1259 44.1701C52.4286 44.8724 52.0446 45.8021 52.0446 46.7924C52.0446 47.7827 52.4286 48.7149 53.1259 49.4147L54.1465 50.4379L48.7932 55.8088C48.7553 55.8467 48.72 55.8872 48.6871 55.9301L45.7566 59.6488C45.7566 59.6488 45.7541 59.6514 45.7541 59.6539L45.7516 59.6514Z" fill="#58595B"/>
</svg>
