<svg width="96" height="96" viewBox="0 0 96 96" fill="none" xmlns="http://www.w3.org/2000/svg">
<path d="M47.9905 4.79999C48.9217 4.80479 49.8481 5.04479 50.6593 5.48639H50.6689L50.6785 5.50079L88.2864 25.6896C90.0816 26.6544 91.2 28.4976 91.1952 30.5088V85.7183C91.1952 88.7279 88.6944 91.1903 85.6368 91.1999H10.3969C7.31052 91.1999 4.80013 88.7423 4.80013 85.7183V30.4848C4.79053 28.4928 5.88493 26.6544 7.66092 25.6752L45.3073 5.46719C46.1281 5.03039 47.0545 4.79999 47.9857 4.79999M47.9809 0C46.2625 0 44.5537 0.427199 43.0417 1.2336L5.37133 21.456C2.03533 23.2848 -0.0190666 26.7504 0.000133412 30.5136V85.7183C0.000133412 91.3871 4.66573 95.9999 10.3969 95.9999H85.6416C91.3536 95.9759 96 91.3631 96 85.7183V30.504C96 26.7264 93.9168 23.256 90.5568 21.456L52.9537 1.272C51.4465 0.451199 49.7329 0.00959999 48.0049 0H47.9809Z" fill="white"/>
<path d="M48.0913 84.4943H47.9089C37.4785 84.4943 28.4401 75.6287 26.4289 63.4127C26.2129 62.1023 27.1009 60.8687 28.4065 60.6527C29.7169 60.4367 30.9505 61.3247 31.1665 62.6303C32.7937 72.5135 39.8401 79.6895 47.9233 79.6895H48.1057C56.1985 79.6895 63.24 72.4655 64.8288 62.5103C65.04 61.1999 66.2688 60.3119 67.5792 60.5183C68.8896 60.7295 69.7776 61.9583 69.5712 63.2687C67.6032 75.5663 58.5745 84.4895 48.0913 84.4895V84.4943Z" fill="white"/>
</svg>
