<svg width="96" height="97" viewBox="0 0 96 97" fill="none" xmlns="http://www.w3.org/2000/svg">
<path d="M37.6969 76.0743C37.4795 76.0743 37.2705 76.0065 37.0955 75.8767L25.1632 67.2056C24.7058 66.8724 24.6042 66.2287 24.9374 65.7684L34.4809 52.6334L18.7821 47.5313C18.5195 47.4466 18.3077 47.2658 18.1835 47.0202C18.0593 46.7746 18.0367 46.4978 18.1214 46.2353L22.6785 32.208C22.7633 31.951 22.9496 31.7336 23.1896 31.6094C23.3336 31.536 23.4945 31.4964 23.6555 31.4964C23.7628 31.4964 23.8701 31.5134 23.9717 31.5472L39.4136 36.5647V20.0555C39.4136 19.488 39.8738 19.0277 40.4414 19.0277H55.1915C55.759 19.0277 56.2193 19.488 56.2193 20.0555V36.2908L71.9181 31.1887C72.0197 31.1548 72.127 31.1379 72.2343 31.1379C72.3953 31.1379 72.5562 31.1774 72.7002 31.2508C72.9458 31.375 73.1265 31.5868 73.2112 31.8494L77.7684 45.8767C77.8531 46.1364 77.8305 46.416 77.7063 46.6616C77.5821 46.9073 77.3703 47.088 77.1077 47.1727L61.6658 52.1901L71.3703 65.5454C71.5313 65.7684 71.5962 66.0395 71.5538 66.3105C71.5115 66.5788 71.3618 66.8216 71.1416 66.9825L59.2094 75.6536C59.0315 75.7835 58.8225 75.8513 58.6051 75.8513C58.5515 75.8513 58.4978 75.8456 58.4442 75.8399C58.1731 75.7976 57.936 75.6508 57.7722 75.4277L48.2287 62.2927L38.5242 75.648C38.3294 75.9162 38.0244 76.0715 37.6913 76.0715L37.6969 76.0743ZM20.3887 45.8993L36.4574 51.12C36.768 51.2216 37.0164 51.4673 37.1181 51.7807C37.2197 52.0913 37.1661 52.4386 36.9712 52.704L27.2018 66.1524L37.471 73.615L47.4014 59.9463C47.5934 59.6809 47.904 59.5228 48.2343 59.5228C48.5647 59.5228 48.8724 59.6809 49.0672 59.9463L58.8367 73.3948L69.1058 65.9322L59.1755 52.2635C58.9835 51.9981 58.927 51.6536 59.0287 51.343C59.1303 51.0296 59.376 50.784 59.6894 50.6823L75.4983 45.5463L71.5764 33.4729L55.5077 38.6936C55.4061 38.7275 55.2988 38.7444 55.1915 38.7444C54.9741 38.7444 54.7651 38.6767 54.5873 38.5496C54.3218 38.3576 54.1637 38.047 54.1637 37.7167V21.0946H41.4691V37.9906C41.4691 38.3181 41.311 38.6287 41.0456 38.8207C40.8677 38.9505 40.6588 39.0183 40.4414 39.0183C40.3341 39.0183 40.2268 39.0014 40.1251 38.9675L24.3162 33.8315L20.3943 45.9049L20.3887 45.8993Z" fill="white"/>
<path d="M81.244 78.0085C81.7861 78.0085 82.2915 78.2231 82.6671 78.6127C83.4096 79.3835 83.3984 80.6259 82.6388 81.3797L82.6134 81.4052L82.5965 81.4221C82.2266 81.7779 81.7409 81.9727 81.2271 81.9727C80.6849 81.9727 80.1795 81.7581 79.804 81.3685C79.0614 80.5976 79.0727 79.3553 79.8322 78.6014L79.8464 78.5873L79.8746 78.559C80.2445 78.2033 80.7301 78.0085 81.244 78.0085ZM81.244 75.1849C80.0468 75.1849 78.8468 75.6311 77.9179 76.5261C77.8953 76.5459 77.8699 76.5741 77.8445 76.5967C75.9894 78.4376 75.9499 81.4362 77.7711 83.3252C78.7113 84.3021 79.9678 84.7934 81.2271 84.7934C82.4864 84.7934 83.6242 84.3473 84.5532 83.4522C84.5758 83.4325 84.6012 83.4042 84.6266 83.3816C86.4816 81.5407 86.5212 78.5421 84.7 76.6532C83.7569 75.6762 82.5005 75.1821 81.244 75.1821V75.1849Z" fill="white"/>
<path d="M48 96C21.5322 96 0 74.4678 0 48C0 21.5322 21.5322 0 48 0C74.4678 0 96 21.5322 96 48C96 57.3402 93.3148 66.3925 88.2353 74.1826C87.8089 74.8348 86.9336 75.0212 86.2814 74.5948C85.6292 74.1685 85.4428 73.2932 85.8692 72.6409C90.6494 65.3111 93.1736 56.7896 93.1736 48C93.1736 23.0908 72.9064 2.82353 47.9972 2.82353C23.088 2.82353 2.82071 23.0908 2.82071 48C2.82071 72.9092 23.088 93.1765 47.9972 93.1765C56.7868 93.1765 65.3082 90.6494 72.6381 85.872C73.2904 85.4456 74.1656 85.6292 74.592 86.2842C75.0183 86.9365 74.8348 87.8118 74.1798 88.2381C66.3896 93.3176 57.3374 96.0028 47.9972 96.0028L48 96Z" fill="white"/>
<path d="M35.6583 10.639C35.8447 10.639 36.0338 10.6842 36.2061 10.7717C36.3755 10.8593 36.6776 11.0682 36.8047 11.4917C36.991 12.1129 36.6409 12.7793 36.0225 12.9769L36 12.9825L35.983 12.9882C35.8701 13.0221 35.7515 13.039 35.6385 13.039C35.1162 13.039 34.6447 12.6889 34.4922 12.1835C34.3058 11.5623 34.656 10.896 35.2743 10.6983L35.2969 10.6898L35.3138 10.6842C35.4268 10.6503 35.5425 10.6334 35.6583 10.6334M35.6583 7.80986C35.2771 7.80986 34.8875 7.8635 34.5035 7.97926C34.4781 7.98773 34.4498 7.99619 34.4216 8.00466C32.3322 8.66537 31.1548 10.8847 31.7873 12.991C32.3096 14.7331 33.9077 15.8569 35.6357 15.8569C36.0169 15.8569 36.4065 15.8033 36.7934 15.6875C36.8188 15.679 36.847 15.6705 36.8753 15.6621C38.9647 15.0014 40.1421 12.7821 39.5096 10.6757C39.1821 9.58586 38.4367 8.73878 37.4964 8.25596C36.9345 7.96796 36.3049 7.80986 35.6583 7.80986Z" fill="white"/>
<path d="M13.4258 31.9737C13.2084 31.9737 12.9882 31.9229 12.782 31.8156C12.0875 31.4598 11.8164 30.6071 12.1722 29.9153C15.775 22.9158 21.278 17.1643 28.0884 13.2847C28.766 12.8979 29.6272 13.1351 30.014 13.8127C30.4009 14.4904 30.1637 15.3515 29.486 15.7384C23.1529 19.3468 18.0338 24.6946 14.6823 31.2085C14.431 31.6941 13.9369 31.9737 13.4258 31.9737Z" fill="white"/>
</svg>
