<svg width="96" height="99" viewBox="0 0 96 99" fill="none" xmlns="http://www.w3.org/2000/svg">
<path d="M10.6693 41.3333C12.1387 41.3333 13.3333 42.528 13.3333 43.9973V76.0053C13.3333 77.4747 12.1387 78.6693 10.6693 78.6693H5.33067C3.86133 78.6693 2.66667 77.4747 2.66667 76.0053V43.9973C2.66667 42.528 3.86133 41.3333 5.33067 41.3333H10.672M10.672 38.6667H5.33067C2.38667 38.6667 0 41.0533 0 43.9973V76.0053C0 78.9493 2.38667 81.336 5.33067 81.336H10.672C13.616 81.336 16.0027 78.9493 16.0027 76.0053V43.9973C16.0027 41.0533 13.616 38.6667 10.672 38.6667Z" fill="white"/>
<path d="M8 96C7.264 96 6.66667 95.4027 6.66667 94.6667V81.3333C6.66667 80.5973 7.264 80 8 80C8.736 80 9.33333 80.5973 9.33333 81.3333V94.6667C9.33333 95.4027 8.736 96 8 96Z" fill="white"/>
<path d="M8 40C7.264 40 6.66667 39.4027 6.66667 38.6667V17.3333C6.66667 16.5973 7.264 16 8 16C8.736 16 9.33333 16.5973 9.33333 17.3333V38.6667C9.33333 39.4027 8.736 40 8 40Z" fill="white"/>
<path d="M37.336 33.3333C38.8053 33.3333 40 34.528 40 35.9973V68.0053C40 69.4747 38.8053 70.6693 37.336 70.6693H31.9947C30.5253 70.6693 29.3307 69.4747 29.3307 68.0053V35.9973C29.3307 34.528 30.5253 33.3333 31.9947 33.3333H37.336ZM37.336 30.6667H31.9947C29.0507 30.6667 26.664 33.0533 26.664 35.9973V68.0053C26.664 70.9493 29.0507 73.336 31.9947 73.336H37.336C40.28 73.336 42.6667 70.9493 42.6667 68.0053V35.9973C42.6667 33.0533 40.28 30.6667 37.336 30.6667Z" fill="white"/>
<path d="M34.6667 96C33.9307 96 33.3333 95.4027 33.3333 94.6667V73.3333C33.3333 72.5973 33.9307 72 34.6667 72C35.4027 72 36 72.5973 36 73.3333V94.6667C36 95.4027 35.4027 96 34.6667 96Z" fill="white"/>
<path d="M64.0027 41.3333C65.472 41.3333 66.6667 42.528 66.6667 43.9973V76.0053C66.6667 77.4747 65.472 78.6693 64.0027 78.6693H58.6613C57.192 78.6693 55.9973 77.4747 55.9973 76.0053V43.9973C55.9973 42.528 57.192 41.3333 58.6613 41.3333H64.0027ZM64.0027 38.6667H58.6613C55.7173 38.6667 53.3307 41.0533 53.3307 43.9973V76.0053C53.3307 78.9493 55.7173 81.336 58.6613 81.336H64.0027C66.9467 81.336 69.3333 78.9493 69.3333 76.0053V43.9973C69.3333 41.0533 66.9467 38.6667 64.0027 38.6667Z" fill="white"/>
<path d="M61.3333 98.6667C60.5973 98.6667 60 98.0693 60 97.3333V81.3333C60 80.5973 60.5973 80 61.3333 80C62.0693 80 62.6667 80.5973 62.6667 81.3333V97.3333C62.6667 98.0693 62.0693 98.6667 61.3333 98.6667Z" fill="white"/>
<path d="M61.3333 40C60.5973 40 60 39.4027 60 38.6667V17.3333C60 16.5973 60.5973 16 61.3333 16C62.0693 16 62.6667 16.5973 62.6667 17.3333V38.6667C62.6667 39.4027 62.0693 40 61.3333 40Z" fill="white"/>
<path d="M90.6693 20C92.1387 20 93.3333 21.1947 93.3333 22.664V54.672C93.3333 56.1413 92.1387 57.336 90.6693 57.336H85.328C83.8587 57.336 82.664 56.1413 82.664 54.672V22.664C82.664 21.1947 83.8587 20 85.328 20H90.6693ZM90.6693 17.3333H85.328C82.384 17.3333 79.9973 19.72 79.9973 22.664V54.672C79.9973 57.616 82.384 60.0027 85.328 60.0027H90.6693C93.6133 60.0027 96 57.616 96 54.672V22.664C96 19.72 93.6133 17.3333 90.6693 17.3333Z" fill="white"/>
<path d="M88 82.6667C87.264 82.6667 86.6667 82.0693 86.6667 81.3333V60C86.6667 59.264 87.264 58.6667 88 58.6667C88.736 58.6667 89.3333 59.264 89.3333 60V81.3333C89.3333 82.0693 88.736 82.6667 88 82.6667Z" fill="white"/>
<path d="M34.6667 32C33.9307 32 33.3333 31.4027 33.3333 30.6667V1.33333C33.3333 0.597333 33.9307 0 34.6667 0C35.4027 0 36 0.597333 36 1.33333V30.6667C36 31.4027 35.4027 32 34.6667 32Z" fill="white"/>
</svg>
