<svg width="96" height="100" viewBox="0 0 96 100" fill="none" xmlns="http://www.w3.org/2000/svg">
<path d="M92.3651 33.5057H3.63233C1.62936 33.5057 0 31.8763 0 29.8733V23.3377C0 21.903 0.845798 20.6005 2.15603 20.0193L46.5198 0.311343C47.4565 -0.103781 48.5306 -0.103781 49.4698 0.311343L93.8413 20.0219C95.1516 20.6031 96 21.9081 96 23.3403V29.8759C96 31.8789 94.3706 33.5083 92.3677 33.5083L92.3651 33.5057ZM47.5732 2.68011L3.20943 22.3881C2.83581 22.5542 2.59193 22.9278 2.59193 23.3351V29.8707C2.59193 30.4415 3.05635 30.9085 3.62974 30.9085H92.3625C92.9333 30.9085 93.4003 30.4441 93.4003 29.8707V23.3351C93.4003 22.9252 93.159 22.5542 92.7828 22.3881L48.4112 2.67755C48.144 2.5582 47.8378 2.5582 47.568 2.67755L47.5732 2.68011Z" fill="#58595B"/>
<path d="M9.08084 80.2071C8.36475 80.2071 7.78357 79.6259 7.78357 78.9098V32.2084C7.78357 31.4923 8.36475 30.9111 9.08084 30.9111C9.79692 30.9111 10.3781 31.4923 10.3781 32.2084V78.9098C10.3781 79.6259 9.79692 80.2071 9.08084 80.2071Z" fill="#58595B"/>
<path d="M19.4589 80.2071C18.7428 80.2071 18.1617 79.6259 18.1617 78.9098V32.2084C18.1617 31.4923 18.7428 30.9111 19.4589 30.9111C20.175 30.9111 20.7562 31.4923 20.7562 32.2084V78.9098C20.7562 79.6259 20.175 80.2071 19.4589 80.2071Z" fill="#58595B"/>
<path d="M68.7549 23.1276H27.2425C26.5264 23.1276 25.9452 22.5464 25.9452 21.8303C25.9452 21.1142 26.5264 20.533 27.2425 20.533H68.7549C69.471 20.533 70.0522 21.1142 70.0522 21.8303C70.0522 22.5464 69.471 23.1276 68.7549 23.1276Z" fill="#58595B"/>
<path d="M76.5385 80.2071C75.8224 80.2071 75.2412 79.6259 75.2412 78.9098V32.2084C75.2412 31.4923 75.8224 30.9111 76.5385 30.9111C77.2546 30.9111 77.8357 31.4923 77.8357 32.2084V78.9098C77.8357 79.6259 77.2546 80.2071 76.5385 80.2071Z" fill="#58595B"/>
<path d="M47.9987 80.2071C47.2826 80.2071 46.7014 79.6259 46.7014 78.9098V37.3974C46.7014 36.6814 47.2826 36.1002 47.9987 36.1002C48.7148 36.1002 49.296 36.6814 49.296 37.3974V78.9098C49.296 79.6259 48.7148 80.2071 47.9987 80.2071Z" fill="#58595B"/>
<path d="M86.9166 80.2071C86.2005 80.2071 85.6193 79.6259 85.6193 78.9098V32.2084C85.6193 31.4923 86.2005 30.9111 86.9166 30.9111C87.6327 30.9111 88.2138 31.4923 88.2138 32.2084V78.9098C88.2138 79.6259 87.6327 80.2071 86.9166 80.2071Z" fill="#58595B"/>
<path d="M92.3651 99.6064H3.63233C1.62936 99.6064 0 97.977 0 95.974V89.0259C0 87.0229 1.62936 85.3935 3.63233 85.3935H92.3651C94.368 85.3935 95.9974 87.0229 95.9974 89.0259V95.974C95.9974 97.977 94.368 99.6064 92.3651 99.6064ZM3.63233 87.9907C3.06154 87.9907 2.59452 88.4551 2.59452 89.0285V95.9766C2.59452 96.5474 3.05894 97.0144 3.63233 97.0144H92.3651C92.9359 97.0144 93.4029 96.55 93.4029 95.9766V89.0285C93.4029 88.4577 92.9385 87.9907 92.3651 87.9907H3.63233Z" fill="#58595B"/>
<path d="M22.0535 87.9907H6.48631C5.77022 87.9907 5.18905 87.4095 5.18905 86.6934V78.9098C5.18905 78.1937 5.77022 77.6126 6.48631 77.6126H22.0535C22.7695 77.6126 23.3507 78.1937 23.3507 78.9098V86.6934C23.3507 87.4095 22.7695 87.9907 22.0535 87.9907ZM7.78357 85.3961H20.7562V80.2071H7.78357V85.3961Z" fill="#58595B"/>
<path d="M89.5111 87.9907H73.9439C73.2279 87.9907 72.6467 87.4095 72.6467 86.6934V78.9098C72.6467 78.1937 73.2279 77.6126 73.9439 77.6126H89.5111C90.2272 77.6126 90.8084 78.1937 90.8084 78.9098V86.6934C90.8084 87.4095 90.2272 87.9907 89.5111 87.9907ZM75.2412 85.3961H88.2138V80.2071H75.2412V85.3961Z" fill="#58595B"/>
<path d="M48.0168 76.6085C43.3078 76.6085 39.4316 75.9702 36.4946 74.7118C34.4916 73.8401 32.8934 72.7011 31.6299 71.2326C30.439 69.8523 29.837 68.5369 29.837 67.3252C29.837 66.9672 29.9668 66.7311 30.3015 66.4794C30.5246 66.3108 30.823 66.1551 31.5001 66.1551C31.9308 66.1551 32.0995 66.2459 32.2344 66.3367C32.5275 66.5365 32.9816 66.9646 33.4564 67.8623C34.2373 69.3023 35.0987 70.5243 36.0302 71.5128C37.1225 72.6778 38.648 73.6377 40.5576 74.3668C42.4801 75.0984 44.8256 75.4565 47.7263 75.4565C51.6492 75.4565 54.9468 74.7378 57.5258 73.3238C60.3538 71.7697 61.8509 69.6785 61.8509 67.2708C61.8509 65.3482 60.9687 63.667 59.3004 62.4086C57.8579 61.3241 56.0132 60.4939 53.813 59.9412C51.9891 59.4846 49.5528 58.9968 46.5743 58.4961C42.9575 57.8734 39.9012 57.1392 37.5039 56.3193C35.3789 55.5928 33.7573 54.6432 32.5431 53.4212C31.4171 52.2874 30.8696 50.8656 30.8696 49.0754C30.8696 47.3786 31.4716 45.923 32.7066 44.6258C33.9701 43.3025 35.794 42.2959 38.2874 41.5538C40.9468 40.7625 44.1718 40.3604 47.8742 40.3604C50.8086 40.3604 53.3434 40.6224 55.4086 41.1387C57.4194 41.6421 59.0851 42.3037 60.3564 43.1028C61.6044 43.8863 62.5073 44.6932 63.0443 45.4949C63.5555 46.2603 63.8149 46.992 63.8149 47.6665C63.8149 47.9312 63.7475 48.2607 63.2441 48.6784C62.938 48.9353 62.6707 49.0261 62.2271 49.0261C61.8327 49.0261 61.6407 48.9871 61.5732 48.969C61.3631 48.8107 60.8779 48.3826 60.1411 47.3733C58.9684 45.5961 57.5102 44.1665 55.803 43.1235C53.8182 41.9093 50.9824 41.3203 47.1399 41.3203C43.6529 41.3203 40.7314 41.93 38.456 43.1287C35.2051 44.8437 34.5227 46.9115 34.5227 48.3437C34.5227 49.6591 35.0364 50.8293 36.0483 51.823C36.9097 52.6688 38.072 53.3901 39.5016 53.9686C40.7185 54.459 41.9768 54.8508 43.2378 55.1336C44.3534 55.3827 46.1047 55.7277 48.5929 56.1896L48.6473 56.1999C51.561 56.7033 54.2256 57.2611 56.5632 57.8604C58.7245 58.4157 60.5666 59.0851 62.0377 59.853C63.3479 60.538 64.3416 61.3812 65.0758 62.4268C65.7997 63.4594 66.1682 64.7982 66.1682 66.4068C66.1682 68.3553 65.5143 70.0495 64.1704 71.5829C62.8238 73.1188 60.8649 74.3019 58.1822 75.1996C55.3879 76.1336 51.9709 76.6085 48.0246 76.6085H48.0168Z" fill="#58595B"/>
</svg>
