<svg width="96" height="96" viewBox="0 0 96 96" fill="none" xmlns="http://www.w3.org/2000/svg">
<path d="M41.7444 67.7312H2.33514C1.04822 67.7312 0 66.7012 0 65.435V62.6406C0 61.7273 0.550054 60.8997 1.40368 60.5364L21.107 52.1092C21.6986 51.8575 22.3784 51.8575 22.9699 52.1092L42.6759 60.5364C43.5295 60.8997 44.0796 61.7273 44.0796 62.6406V65.435C44.0796 66.7012 43.0314 67.7312 41.7444 67.7312ZM2.59459 65.1366H41.485V62.8482L22.0385 54.5325L2.59459 62.8482V65.1366Z" fill="white"/>
<path d="M7.20519 66.5299H4.61059V89.8268H7.20519V66.5299Z" fill="white"/>
<path d="M11.8132 66.5299H9.21859V89.8268H11.8132V66.5299Z" fill="white"/>
<path d="M34.861 66.5299H32.2664V89.8268H34.861V66.5299Z" fill="white"/>
<path d="M39.469 66.5299H36.8744V89.8268H39.469V66.5299Z" fill="white"/>
<path d="M21.0318 66.5299H18.4372V89.8268H21.0318V66.5299Z" fill="white"/>
<path d="M25.6424 66.5299H23.0478V89.8268H25.6424V66.5299Z" fill="white"/>
<path d="M41.7444 95.9967H2.33514C1.04822 95.9967 0 94.9667 0 93.7005V90.7297C0 89.4636 1.04822 88.4335 2.33514 88.4335H41.7444C43.0314 88.4335 44.0796 89.4636 44.0796 90.7297V93.7005C44.0796 94.9667 43.0314 95.9967 41.7444 95.9967ZM2.59459 93.4022H41.485V91.0307H2.59459V93.4022Z" fill="white"/>
<path d="M93.6649 15.8108H54.2556C52.9687 15.8108 51.9204 14.7808 51.9204 13.5146V10.7202C51.9204 9.80692 52.4705 8.97925 53.3241 8.616L73.0275 0.188757C73.619 -0.0629189 74.2988 -0.0629189 74.8904 0.188757L94.5963 8.616C95.4474 8.97925 96 9.80692 96 10.7202V13.5146C96 14.7808 94.9518 15.8108 93.6649 15.8108ZM54.515 13.2162H93.4054V10.9278L73.9589 2.61211L54.515 10.9278V13.2162Z" fill="white"/>
<path d="M59.1256 14.6069H56.531V37.9038H59.1256V14.6069Z" fill="white"/>
<path d="M63.7336 14.6069H61.139V37.9038H63.7336V14.6069Z" fill="white"/>
<path d="M86.7814 14.6069H84.1868V37.9038H86.7814V14.6069Z" fill="white"/>
<path d="M91.3894 14.6069H88.7948V37.9038H91.3894V14.6069Z" fill="white"/>
<path d="M72.9522 14.6069H70.3576V37.9038H72.9522V14.6069Z" fill="white"/>
<path d="M77.5628 14.6069H74.9682V37.9038H77.5628V14.6069Z" fill="white"/>
<path d="M93.6649 44.0763H54.2556C52.9687 44.0763 51.9204 43.0463 51.9204 41.7801V38.8093C51.9204 37.5431 52.9687 36.5131 54.2556 36.5131H93.6649C94.9518 36.5131 96 37.5431 96 38.8093V41.7801C96 43.0463 94.9518 44.0763 93.6649 44.0763ZM54.515 41.4817H93.4054V39.1103H54.515V41.4817Z" fill="white"/>
<path d="M22.8532 42.1096C22.7286 42.1096 22.6015 42.0915 22.477 42.0525C21.792 41.845 21.4028 41.1211 21.6104 40.4361C24.6798 30.3016 31.1248 21.2569 39.757 14.9624C40.3356 14.5395 41.1477 14.6666 41.5706 15.2452C41.9935 15.8238 41.8664 16.6359 41.2878 17.0588C33.107 23.0212 27.0019 31.5911 24.096 41.1885C23.9274 41.749 23.411 42.1096 22.8558 42.1096H22.8532Z" fill="white"/>
<path d="M40.7092 26.5135C39.9931 26.5135 39.4119 25.9323 39.4119 25.2162C39.4119 24.2951 39.4378 22.3673 39.4638 20.5044C39.4794 19.2979 39.4975 18.0655 39.5079 17.1029L30.8575 16.9628C30.1414 16.9498 29.5706 16.3609 29.581 15.6448C29.5939 14.9286 30.1881 14.3552 30.899 14.3682L42.1103 14.5524V15.829C42.1103 16.7501 42.0843 18.6778 42.0584 20.5408C42.0324 22.3959 42.0065 24.3133 42.0065 25.2188C42.0065 25.9349 41.4253 26.5161 40.7092 26.5161V26.5135Z" fill="white"/>
<path d="M51.8867 81.2828C51.4871 81.2828 51.0902 81.0986 50.8385 80.7509C50.4156 80.1723 50.5427 79.3602 51.1213 78.9373C59.3021 72.9749 65.4071 64.405 68.3131 54.8076C68.5207 54.1226 69.2471 53.7334 69.9295 53.941C70.6145 54.1485 71.0037 54.8724 70.7961 55.5574C67.7267 65.6919 61.2817 74.7366 52.6495 81.0311C52.4186 81.1998 52.1514 81.2802 51.8867 81.2802V81.2828Z" fill="white"/>
<path d="M61.5282 81.6279C61.5282 81.6279 61.5126 81.6279 61.5075 81.6279L50.2962 81.4437V80.1671C50.2962 79.246 50.3222 77.3183 50.3481 75.4553C50.3741 73.6002 50.4 71.6828 50.4 70.7773C50.4 70.0612 50.9812 69.48 51.6973 69.48C52.4134 69.48 52.9946 70.0612 52.9946 70.7773C52.9946 71.6984 52.9687 73.6262 52.9427 75.4891C52.9271 76.6956 52.909 77.928 52.8986 78.8906L61.549 79.0307C62.2651 79.0437 62.8359 79.6326 62.8255 80.3487C62.8151 81.0571 62.2365 81.6253 61.5282 81.6253V81.6279Z" fill="white"/>
</svg>
