<svg width="96" height="96" viewBox="0 0 96 96" fill="none" xmlns="http://www.w3.org/2000/svg">
<path d="M13.3306 56C9.6586 56 6.66927 53.0133 6.66927 49.3387C6.66927 45.664 9.6586 42.6667 13.3306 42.6667C17.0026 42.6667 20.0026 45.6613 20.0026 49.3387C20.0026 53.016 17.0106 56 13.3306 56ZM13.3306 45.3333C11.0906 45.3333 9.33594 47.0933 9.33594 49.3387C9.33594 51.584 11.0906 53.3333 13.3306 53.3333C15.5706 53.3333 17.3359 51.5787 17.3359 49.3387C17.3359 47.0987 15.5759 45.3333 13.3306 45.3333Z" fill="white"/>
<path d="M34.6639 29.3333C30.9919 29.3333 28.0026 26.3467 28.0026 22.672C28.0026 18.9973 30.9919 16 34.6639 16C38.3359 16 41.3359 18.9947 41.3359 22.672C41.3359 26.3493 38.3439 29.3333 34.6639 29.3333ZM34.6639 18.6667C32.4239 18.6667 30.6693 20.4267 30.6693 22.672C30.6693 24.9173 32.4239 26.6667 34.6639 26.6667C36.9039 26.6667 38.6693 24.912 38.6693 22.672C38.6693 20.432 36.9093 18.6667 34.6639 18.6667Z" fill="white"/>
<path d="M58.6639 45.3333C54.9919 45.3333 52.0026 42.3467 52.0026 38.672C52.0026 34.9973 54.9919 32 58.6639 32C62.3359 32 65.3359 34.9947 65.3359 38.672C65.3359 42.3493 62.3439 45.3333 58.6639 45.3333ZM58.6639 34.6667C56.4239 34.6667 54.6693 36.4267 54.6693 38.672C54.6693 40.9173 56.4239 42.6667 58.6639 42.6667C60.9039 42.6667 62.6693 40.912 62.6693 38.672C62.6693 36.432 60.9093 34.6667 58.6639 34.6667Z" fill="white"/>
<path d="M82.6639 13.3333C78.9919 13.3333 76.0026 10.3467 76.0026 6.67201C76.0026 2.99734 78.9919 0 82.6639 0C86.3359 0 89.3359 2.99467 89.3359 6.67201C89.3359 10.3493 86.3439 13.3333 82.6639 13.3333ZM82.6639 2.66667C80.4239 2.66667 78.6693 4.42667 78.6693 6.67201C78.6693 8.91734 80.4239 10.6667 82.6639 10.6667C84.9039 10.6667 86.6693 8.91201 86.6693 6.67201C86.6693 4.43201 84.9093 2.66667 82.6639 2.66667Z" fill="white"/>
<path d="M94.6667 96H1.33333C0.597333 96 0 95.4027 0 94.6667C0 93.9307 0.597333 93.3333 1.33333 93.3333H94.6667C95.4027 93.3333 96 93.9307 96 94.6667C96 95.4027 95.4027 96 94.6667 96Z" fill="white"/>
<path d="M18.6667 88H8C7.264 88 6.66667 87.4027 6.66667 86.6667V60C6.66667 59.264 7.264 58.6667 8 58.6667H18.6667C19.4027 58.6667 20 59.264 20 60V86.6667C20 87.4027 19.4027 88 18.6667 88ZM9.33333 85.3333H17.3333V61.3333H9.33333V85.3333Z" fill="white"/>
<path d="M40 88H29.3333C28.5973 88 28 87.4027 28 86.6667V41.3333C28 40.5973 28.5973 40 29.3333 40H40C40.736 40 41.3333 40.5973 41.3333 41.3333V86.6667C41.3333 87.4027 40.736 88 40 88ZM30.6667 85.3333H38.6667V42.6667H30.6667V85.3333Z" fill="white"/>
<path d="M64 88H53.3333C52.5973 88 52 87.4027 52 86.6667V52C52 51.264 52.5973 50.6667 53.3333 50.6667H64C64.736 50.6667 65.3333 51.264 65.3333 52V86.6667C65.3333 87.4027 64.736 88 64 88ZM54.6667 85.3333H62.6667V53.3333H54.6667V85.3333Z" fill="white"/>
<path d="M88 88H77.3333C76.5973 88 76 87.4027 76 86.6667V33.3333C76 32.5973 76.5973 32 77.3333 32H88C88.736 32 89.3333 32.5973 89.3333 33.3333V86.6667C89.3333 87.4027 88.736 88 88 88ZM78.6667 85.3333H86.6667V34.6667H78.6667V85.3333Z" fill="white"/>
<path d="M16.6694 46.496C16.376 46.496 16.0827 46.4 15.8374 46.2027C15.2614 45.7413 15.168 44.904 15.6294 44.328L30.2907 26.0027C30.752 25.4267 31.5894 25.3333 32.1654 25.7947C32.7414 26.256 32.8347 27.0933 32.3734 27.6693L17.7121 45.9947C17.4481 46.3227 17.0614 46.496 16.6694 46.496Z" fill="white"/>
<path d="M61.8693 35.7281C61.5919 35.7281 61.3093 35.6401 61.0693 35.4614C60.4799 35.0187 60.3599 34.1841 60.8026 33.5947L78.3919 10.1414C78.8346 9.55206 79.6692 9.43206 80.2586 9.87473C80.8479 10.3174 80.9679 11.1521 80.5252 11.7414L62.9359 35.1947C62.6746 35.5441 62.2746 35.7281 61.8693 35.7281Z" fill="white"/>
<path d="M54.224 37.0373C53.9707 37.0373 53.712 36.9653 53.4854 36.8133L38.3733 26.7387C37.76 26.3307 37.5947 25.5013 38.0027 24.8907C38.4107 24.2773 39.24 24.112 39.8506 24.52L54.9627 34.5947C55.576 35.0027 55.7413 35.832 55.3333 36.4427C55.0773 36.8293 54.6534 37.0373 54.224 37.0373Z" fill="white"/>
</svg>
