<svg width="96" height="98" viewBox="0 0 96 98" fill="none" xmlns="http://www.w3.org/2000/svg">
<path d="M72.4662 48.1949C72.942 48.1949 73.3873 48.3785 73.724 48.7152C74.0607 49.052 74.2444 49.4972 74.2444 49.9731C74.2444 50.4489 74.0607 50.8942 73.724 51.2309L51.2308 73.7268C50.8941 74.0635 50.4489 74.2472 49.973 74.2472C48.8794 74.2472 48.4425 73.3984 48.334 73.1369C48.1976 72.8085 47.9611 71.9626 48.7152 71.2112L71.2111 48.7152C71.5478 48.3785 71.9931 48.1949 72.469 48.1949M72.469 45.4121C71.303 45.4121 70.1342 45.8573 69.2437 46.7478L46.7478 69.2438C43.8648 72.1239 45.9463 77.03 49.973 77.03C51.1418 77.03 52.3078 76.5847 53.1982 75.6943L75.6942 53.1983C77.4752 51.4173 77.4752 48.5288 75.6942 46.7478C74.8037 45.8573 73.6377 45.4121 72.469 45.4121Z" fill="white"/>
<path d="M73.8659 70.3263C75.8194 70.3263 77.4084 71.9152 77.4084 73.8687C77.4084 75.8222 75.8194 77.4112 73.8659 77.4112C71.9124 77.4112 70.3234 75.8222 70.3234 73.8687C70.3234 71.9152 71.9124 70.3263 73.8659 70.3263ZM73.8659 67.5435C70.3791 67.5435 67.5407 70.3791 67.5407 73.8687C67.5407 77.3583 70.3791 80.194 73.8659 80.194C77.3527 80.194 80.1912 77.3583 80.1912 73.8687C80.1912 70.3791 77.3555 67.5435 73.8659 67.5435Z" fill="white"/>
<path d="M48.5677 45.0281C50.5212 45.0281 52.1102 46.6171 52.1102 48.5706C52.1102 50.5241 50.5212 52.113 48.5677 52.113C46.6142 52.113 45.0252 50.5241 45.0252 48.5706C45.0252 46.6171 46.6142 45.0281 48.5677 45.0281ZM48.5677 42.2453C45.0809 42.2453 42.2425 45.081 42.2425 48.5706C42.2425 52.0602 45.0781 54.8958 48.5677 54.8958C52.0573 54.8958 54.893 52.0602 54.893 48.5706C54.893 45.081 52.0545 42.2453 48.5677 42.2453Z" fill="white"/>
<path d="M61.2153 29.2163C78.8609 29.2163 93.2172 43.5727 93.2172 61.2182C93.2172 78.8638 78.8609 93.2201 61.2153 93.2201C43.5698 93.2201 29.2134 78.8638 29.2134 61.2182C29.2134 43.5727 43.5698 29.2163 61.2153 29.2163ZM61.2153 26.4336C42.0364 26.4336 26.4306 42.0394 26.4306 61.2182C26.4306 80.3971 42.0364 96.0029 61.2153 96.0029C80.3942 96.0029 96 80.3971 96 61.2182C96 42.0394 80.397 26.4336 61.2153 26.4336Z" fill="white"/>
<path d="M34.7791 97.3943H15.5612C11.2646 97.3943 7.15725 95.733 4.29099 92.8389C0.834789 89.3493 -0.665133 84.4321 0.275445 79.6903L5.78534 51.8792C7.93643 41.0236 15.9369 31.924 26.6701 28.1311L26.6979 28.1227C26.8899 28.0587 27.0847 27.9947 27.2878 27.9251C27.7526 27.7693 28.2507 27.6023 28.7961 27.4326L27.9501 26.1358C26.8732 24.4161 26.5643 22.4152 27.0624 20.4784C27.5578 18.55 28.8045 16.9276 30.5715 15.9091C31.5037 15.372 31.8293 14.1727 31.3006 13.2377L27.1042 5.81877C26.4196 4.61105 26.4307 3.17514 27.1292 1.97576C27.85 0.737428 29.1495 0 30.6049 0H43.3027C44.7581 0 46.0549 0.737428 46.7784 1.97576C47.4769 3.17514 47.488 4.61105 46.8034 5.81877L42.607 13.2377C42.0783 14.1727 42.4039 15.372 43.3361 15.9091C46.834 17.9294 48.0891 22.2288 46.2023 25.7128L45.1393 27.8973C44.6356 29.0132 43.4335 29.6505 42.2035 29.4501C37.4617 28.6765 34.1335 28.9854 31.5928 29.5614C31.4286 29.6365 31.2561 29.6755 31.0808 29.6838C29.9816 29.9593 29.0326 30.2766 28.1755 30.566C27.9752 30.6328 27.7776 30.6996 27.5856 30.7636C17.7819 34.2337 10.4771 42.5319 8.51803 52.4219L3.00813 80.2329C2.24843 84.0704 3.46729 88.0525 6.27233 90.8854C8.62099 93.2563 12.0076 94.6171 15.5668 94.6171H34.7846C35.5527 94.6171 36.176 95.2404 36.176 96.0085C36.176 96.7765 35.5527 97.3999 34.7846 97.3999L34.7791 97.3943ZM30.5993 2.77999C30.1457 2.77999 29.745 3.00261 29.528 3.37551C29.4111 3.57587 29.2553 3.97936 29.5224 4.44687L33.7188 11.8658C34.9961 14.1254 34.2086 17.0194 31.9601 18.3162C30.847 18.959 30.0623 19.972 29.7534 21.1686C29.4473 22.3596 29.6393 23.5923 30.2932 24.6359L31.6401 26.7035C34.3394 26.1692 37.8624 25.9243 42.6209 26.6979L43.7368 24.4049C44.9139 22.2538 44.1236 19.5796 41.9364 18.3162C39.6879 17.0194 38.8976 14.1254 40.1776 11.8658L44.3741 4.44687C44.6384 3.97936 44.4826 3.57587 44.3685 3.37551C44.1514 3.00261 43.7507 2.77999 43.2971 2.77999H30.5993Z" fill="white"/>
</svg>
