<svg width="96" height="98" viewBox="0 0 96 98" fill="none" xmlns="http://www.w3.org/2000/svg">
<path d="M44.9892 97.3913H10.4014C4.66644 97.3913 0 92.6275 0 86.7729V10.6184C0 4.76382 4.66644 0 10.4014 0H44.9892C50.7687 0 55.6522 4.86121 55.6522 10.6184V19.4059H52.8696V10.6184C52.8696 6.37217 49.2605 2.78261 44.9892 2.78261H10.4014C6.19965 2.78261 2.78261 6.29704 2.78261 10.6184V86.7729C2.78261 91.0943 6.19965 94.6087 10.4014 94.6087H44.9892C49.2605 94.6087 52.8696 91.0191 52.8696 86.7729V77.9854H55.6522V86.7729C55.6522 92.5273 50.7687 97.3913 44.9892 97.3913Z" fill="#58595B"/>
<path d="M66.7826 58.4348C61.4122 58.4348 57.0435 54.0661 57.0435 48.6956C57.0435 43.3252 61.4122 38.9565 66.7826 38.9565C72.153 38.9565 76.5217 43.3252 76.5217 48.6956C76.5217 54.0661 72.153 58.4348 66.7826 58.4348ZM66.7826 41.7391C62.9482 41.7391 59.8261 44.8584 59.8261 48.6956C59.8261 52.5329 62.9454 55.6522 66.7826 55.6522C70.6198 55.6522 73.7391 52.5329 73.7391 48.6956C73.7391 44.8584 70.617 41.7391 66.7826 41.7391Z" fill="#58595B"/>
<path d="M93.2174 32V65.3913H40.3478V32H93.2174ZM96 29.2174H37.5652V68.1739H96V29.2174Z" fill="#58595B"/>
<path d="M37.5652 50.087H18.087C17.319 50.087 16.6957 49.4636 16.6957 48.6956C16.6957 47.9276 17.319 47.3043 18.087 47.3043H37.5652C38.3332 47.3043 38.9565 47.9276 38.9565 48.6956C38.9565 49.4636 38.3332 50.087 37.5652 50.087Z" fill="#58595B"/>
<path d="M37.5652 38.9565H22.9565C22.1885 38.9565 21.5652 38.3332 21.5652 37.5652C21.5652 36.7972 22.1885 36.1739 22.9565 36.1739H37.5652C38.3332 36.1739 38.9565 36.7972 38.9565 37.5652C38.9565 38.3332 38.3332 38.9565 37.5652 38.9565Z" fill="#58595B"/>
<path d="M37.5652 61.2174H27.8261C27.0581 61.2174 26.4348 60.5941 26.4348 59.8261C26.4348 59.0581 27.0581 58.4348 27.8261 58.4348H37.5652C38.3332 58.4348 38.9565 59.0581 38.9565 59.8261C38.9565 60.5941 38.3332 61.2174 37.5652 61.2174Z" fill="#58595B"/>
<path d="M84.1739 50.087H79.3043C78.5363 50.087 77.913 49.4636 77.913 48.6956C77.913 47.9276 78.5363 47.3043 79.3043 47.3043H84.1739C84.9419 47.3043 85.5652 47.9276 85.5652 48.6956C85.5652 49.4636 84.9419 50.087 84.1739 50.087Z" fill="#58595B"/>
<path d="M51.4783 50.087H46.6087C45.8407 50.087 45.2174 49.4636 45.2174 48.6956C45.2174 47.9276 45.8407 47.3043 46.6087 47.3043H51.4783C52.2463 47.3043 52.8696 47.9276 52.8696 48.6956C52.8696 49.4636 52.2463 50.087 51.4783 50.087Z" fill="#58595B"/>
<path d="M43.1304 86.2609H12.5217C11.7537 86.2609 11.1304 85.6376 11.1304 84.8696C11.1304 84.1016 11.7537 83.4783 12.5217 83.4783H43.1304C43.8984 83.4783 44.5217 84.1016 44.5217 84.8696C44.5217 85.6376 43.8984 86.2609 43.1304 86.2609Z" fill="#58595B"/>
<path d="M15.3043 13.913H6.95652C6.18852 13.913 5.56522 13.2897 5.56522 12.5217C5.56522 11.7537 6.18852 11.1304 6.95652 11.1304H15.3043C16.0723 11.1304 16.6957 11.7537 16.6957 12.5217C16.6957 13.2897 16.0723 13.913 15.3043 13.913Z" fill="#58595B"/>
</svg>
