<svg width="96" height="127" viewBox="0 0 96 127" fill="none" xmlns="http://www.w3.org/2000/svg">
<path d="M85.3809 3.696C89.1988 3.696 92.3077 6.80493 92.3077 10.6228V115.422C92.3077 119.239 89.1988 122.348 85.3809 122.348H10.6191C6.80123 122.348 3.69231 119.239 3.69231 115.422V26.1009H14.9391C20.9538 26.1009 25.8462 21.2086 25.8462 15.1939V3.696H85.3809ZM85.3809 0.00369591H25.5176C23.6603 0.00369591 22.1538 1.51015 22.1538 3.36738V15.1902C22.1538 19.1742 18.9231 22.4049 14.9391 22.4049H3.36373C1.5065 22.4049 0 23.9114 0 25.7686V115.418C0 121.281 4.7557 126.037 10.6191 126.037H85.3809C91.2443 126.037 96 121.281 96 115.418V10.6191C96 4.7557 91.2443 0 85.3809 0V0.00369591Z" fill="#58595B"/>
<path d="M24.6988 0.154565L0.930649 23.5686L3.52184 26.1989L27.2899 2.78494L24.6988 0.154565Z" fill="#58595B"/>
<path d="M20.6769 112.866H12.5538C10.7225 112.866 9.23077 111.375 9.23077 109.543V79.2665C9.23077 77.4351 10.7225 75.9434 12.5538 75.9434H20.6769C22.5083 75.9434 24 77.4351 24 79.2665V109.543C24 111.375 22.5083 112.866 20.6769 112.866ZM12.9231 109.174H20.3077V79.6357H12.9231V109.174Z" fill="#58595B"/>
<path d="M42.8308 112.866H34.7077C32.8763 112.866 31.3846 111.375 31.3846 109.543V64.4973C31.3846 62.6659 32.8763 61.1742 34.7077 61.1742H42.8308C44.6622 61.1742 46.1538 62.6659 46.1538 64.4973V109.543C46.1538 111.375 44.6622 112.866 42.8308 112.866ZM35.0769 109.174H42.4615V64.8665H35.0769V109.174Z" fill="#58595B"/>
<path d="M83.4462 112.866H75.3231C73.4917 112.866 72 111.375 72 109.543V60.8049C72 58.9736 73.4917 57.4819 75.3231 57.4819H83.4462C85.2775 57.4819 86.7692 58.9736 86.7692 60.8049V109.543C86.7692 111.375 85.2775 112.866 83.4462 112.866ZM75.6923 109.174H83.0769V61.1742H75.6923V109.174Z" fill="#58595B"/>
<path d="M64.9846 112.866H56.8615C55.0302 112.866 53.5385 111.375 53.5385 109.543V79.2665C53.5385 77.4351 55.0302 75.9434 56.8615 75.9434H64.9846C66.816 75.9434 68.3077 77.4351 68.3077 79.2665V109.543C68.3077 111.375 66.816 112.866 64.9846 112.866ZM57.2308 109.174H64.6154V79.6357H57.2308V109.174Z" fill="#58595B"/>
<path d="M84.9231 20.5588H29.5385C28.5194 20.5588 27.6923 19.7317 27.6923 18.7126C27.6923 17.6936 28.5194 16.8665 29.5385 16.8665H84.9231C85.9422 16.8665 86.7692 17.6936 86.7692 18.7126C86.7692 19.7317 85.9422 20.5588 84.9231 20.5588Z" fill="#58595B"/>
<path d="M84.9231 31.6357H11.0769C10.0578 31.6357 9.23077 30.8086 9.23077 29.7896C9.23077 28.7705 10.0578 27.9434 11.0769 27.9434H84.9231C85.9422 27.9434 86.7692 28.7705 86.7692 29.7896C86.7692 30.8086 85.9422 31.6357 84.9231 31.6357Z" fill="#58595B"/>
<path d="M84.9231 42.7126H11.0769C10.0578 42.7126 9.23077 41.8856 9.23077 40.8665C9.23077 39.8474 10.0578 39.0203 11.0769 39.0203H84.9231C85.9422 39.0203 86.7692 39.8474 86.7692 40.8665C86.7692 41.8856 85.9422 42.7126 84.9231 42.7126Z" fill="#58595B"/>
<path d="M84.9231 53.7896H11.0769C10.0578 53.7896 9.23077 52.9625 9.23077 51.9434C9.23077 50.9243 10.0578 50.0973 11.0769 50.0973H84.9231C85.9422 50.0973 86.7692 50.9243 86.7692 51.9434C86.7692 52.9625 85.9422 53.7896 84.9231 53.7896Z" fill="#58595B"/>
</svg>
