<svg width="96" height="96" viewBox="0 0 96 96" fill="none" xmlns="http://www.w3.org/2000/svg">
<path d="M75.4965 30.4856H72.9298V18.491C72.9298 18.45 72.7706 18.2754 72.4523 18.2754H68.8229V15.7087H72.4523C74.131 15.7087 75.4965 16.9561 75.4965 18.491V30.4856Z" fill="#58595B"/>
<path d="M79.3467 29.2022H69.0796V31.769H79.3467V29.2022Z" fill="#58595B"/>
<path d="M63.7459 95.9974H0V92.2653C0 80.7687 6.07556 70.0447 15.855 64.2772C25.7345 58.4403 38.0139 58.4403 47.9012 64.2772C57.6754 70.0524 63.7459 80.7764 63.7459 92.2653V95.9974ZM2.56678 93.4306H61.1791V92.2653C61.1791 81.6799 55.5912 71.803 46.5947 66.4872C37.5109 61.1252 26.2324 61.1252 17.1589 66.4872C8.15721 71.7953 2.56678 81.6722 2.56678 92.2653V93.4306Z" fill="#58595B"/>
<path d="M31.859 55.0189C27.3774 55.0189 23.1807 53.2888 20.0364 50.1497C16.8921 47.0079 15.1595 42.8061 15.1595 38.322C15.1595 33.8378 16.8896 29.6206 20.0339 26.4712C23.1782 23.3217 27.3748 21.5866 31.8564 21.5866C36.338 21.5866 40.5526 23.3217 43.6995 26.4686C46.8464 29.618 48.5815 33.8276 48.5815 38.3194C48.5815 42.8113 46.8464 47.0079 43.6995 50.1497C40.5526 53.2888 36.3457 55.0189 31.8564 55.0189H31.859ZM31.859 24.1534C28.0653 24.1534 24.5103 25.619 21.8537 28.2833C19.1945 30.9476 17.7289 34.5129 17.7289 38.3194C17.7289 42.1259 19.1945 45.6758 21.8511 48.3324C24.5077 50.989 28.0627 52.4521 31.859 52.4521C35.6552 52.4521 39.2256 50.989 41.8873 48.3324C44.5491 45.6758 46.0173 42.1208 46.0173 38.3194C46.0173 34.518 44.5517 30.9476 41.8873 28.2833C39.2256 25.619 35.6629 24.1534 31.859 24.1534Z" fill="#58595B"/>
<path d="M66.2151 47.2466C66.0868 47.2466 65.9585 47.2338 65.8301 47.2081C65.2038 47.0798 64.6853 46.6486 64.4492 46.0531L61.0148 37.4647H57.37C54.6261 37.4647 52.393 35.2316 52.393 32.4851V4.97954C52.393 2.23566 54.6261 0 57.37 0H91.023C93.7669 0 96 2.23309 96 4.97954V32.4851C96 35.229 93.7669 37.4647 91.023 37.4647H76.78L67.555 46.6922C67.1956 47.0516 66.7131 47.2492 66.2151 47.2492V47.2466ZM57.37 2.56678C56.0404 2.56678 54.9598 3.64739 54.9598 4.97954V32.4851C54.9598 33.8147 56.0404 34.8979 57.37 34.8979H62.7526L66.4564 44.1614L75.7148 34.8979H91.0204C92.35 34.8979 93.4307 33.8173 93.4307 32.4851V4.97954C93.4307 3.64995 92.35 2.56678 91.0204 2.56678H57.3675H57.37Z" fill="#58595B"/>
<path d="M74.1748 13.8016C72.0752 13.8016 70.3657 12.0921 70.3657 9.99247C70.3657 7.89285 72.0752 6.17568 74.1748 6.17568C76.2744 6.17568 77.9891 7.88772 77.9891 9.99247C77.9891 12.0972 76.277 13.8016 74.1748 13.8016ZM74.1748 8.74245C73.4767 8.74245 72.9325 9.29174 72.9325 9.99247C72.9325 10.6932 73.4792 11.2348 74.1748 11.2348C74.8704 11.2348 75.4223 10.6881 75.4223 9.99247C75.4223 9.29688 74.8756 8.74245 74.1748 8.74245Z" fill="#58595B"/>
</svg>
