<svg width="96" height="96" viewBox="0 0 96 96" fill="none" xmlns="http://www.w3.org/2000/svg">
<path d="M95.5203 67.5272L82.5156 46.1283C81.5669 44.5674 79.5052 44.0527 77.9053 44.9764L74.7418 46.8044C72.2878 48.2234 71.25 51.092 72.093 53.635C71.0274 54.0107 69.8588 54.0051 68.7821 53.5989C66.2835 52.8337 64.386 51.2923 61.2503 52.0658C55.9249 53.3874 56.0863 53.3206 55.6049 53.482C52.4859 51.7514 50.6134 51.2367 47.3024 52.4859L44.3532 53.5989C42.987 54.1136 41.4818 53.9911 40.2214 53.2622L39.4173 52.8003C39.8096 50.5049 38.7663 48.0843 36.5571 46.8072L33.3936 44.9792C31.7965 44.0583 29.7292 44.573 28.7832 46.1311L15.7786 67.53C14.8298 69.0909 15.3585 71.1025 16.9583 72.0262L20.1218 73.8542C21.079 74.4079 22.1307 74.6695 23.1713 74.6695C24.3287 74.6695 25.4723 74.3411 26.4489 73.7262L27.1083 74.1046L25.7171 75.9939C24.0588 78.2475 24.5847 81.3776 26.8968 82.9942C27.9652 83.7426 29.3091 84.0821 30.6975 83.8706C30.9173 85.1254 31.624 86.2996 32.7648 87.1009C33.8387 87.8521 35.1743 88.1944 36.5654 87.9801C36.7852 89.235 37.4919 90.4091 38.6327 91.2076C40.1658 92.2816 42.0744 92.4068 43.6632 91.7446C44.0109 92.6266 44.6147 93.4196 45.4578 94.0122C47.6614 95.5537 50.6941 95.1502 52.4052 93.1553L56.103 95.2921C58.5486 96.7055 61.7038 95.9209 63.1562 93.5337C63.5262 92.9243 63.7572 92.2594 63.8406 91.5749L63.849 91.5805C66.2919 92.9911 69.4554 92.2009 70.9022 89.822C71.3223 89.132 71.5505 88.3836 71.6061 87.6351C73.7596 88.1638 76.1051 87.2818 77.2932 85.3258C77.6827 84.6858 77.9081 83.9931 77.9832 83.2947C80.2898 84.1767 82.9859 83.3253 84.2908 81.1801C84.9919 80.0282 85.1895 78.676 84.85 77.3794C84.6553 76.6366 84.2963 75.9632 83.8039 75.3929L85.8433 74.2326C87.5684 74.9226 89.5355 74.8113 91.1854 73.8598L94.3489 72.0318C95.9487 71.1081 96.4774 69.0964 95.5286 67.5356L95.5203 67.5272ZM21.6827 71.275L18.5192 69.447C18.3773 69.3663 18.3328 69.1882 18.4163 69.0519L31.4209 47.6502C31.5044 47.5139 31.688 47.4666 31.8271 47.5501L34.9906 49.3781C36.3957 50.1905 36.8353 51.9461 36.0173 53.2928L25.6976 70.2734C24.8741 71.6284 23.0739 72.0791 21.6827 71.275ZM28.6803 80.5596C27.7482 79.9086 27.534 78.6426 28.2045 77.7356L30.2495 74.9588C30.9006 74.0741 32.1999 73.832 33.1487 74.4942C34.078 75.1452 34.2922 76.4112 33.6245 77.3182L31.5795 80.095C30.9117 81.002 29.6124 81.2107 28.6803 80.5596ZM34.5482 84.6664C33.6189 84.0153 33.4047 82.7466 34.0725 81.8395L38.3739 75.9966C38.6967 75.557 39.178 75.2676 39.7234 75.1786C39.8375 75.1591 39.9515 75.1508 40.0628 75.1508C40.4941 75.1508 40.9114 75.2816 41.2704 75.532C41.7211 75.8464 42.0188 76.3138 42.1078 76.848C42.1969 77.3822 42.0689 77.9164 41.7461 78.356L37.4419 84.1989C36.7741 85.1088 35.4775 85.3146 34.5427 84.6636L34.5482 84.6664ZM40.4162 88.7731C39.4869 88.122 39.2726 86.8561 39.9404 85.949L44.2447 80.1061C44.9124 79.1991 46.2118 78.9904 47.1439 79.6415C48.0732 80.2926 48.2874 81.5613 47.6196 82.4656L43.3181 88.3085C42.6504 89.2155 41.351 89.4242 40.419 88.7731H40.4162ZM47.244 91.5749C46.3147 90.9238 46.1005 89.6579 46.7655 88.7508L48.1984 86.806C48.8661 85.899 50.1655 85.6903 51.0975 86.3413C52.0268 86.9924 52.2411 88.2611 51.5733 89.1654L50.1432 91.1075C49.4754 92.0145 48.1761 92.2232 47.244 91.5721V91.5749ZM81.6448 79.6443C81.0605 80.6042 79.7834 80.9241 78.7985 80.3537C77.1291 79.3883 66.3614 73.1698 65.2123 72.5076C64.4834 72.0874 63.5429 72.3212 63.1089 73.0334C62.6748 73.7457 62.9169 74.6611 63.6459 75.084L73.9154 81.0159C74.9004 81.5863 75.2315 82.8273 74.6444 83.79C74.0601 84.7526 72.783 85.0698 71.7981 84.4994C68.0002 82.3042 64.9146 80.5235 61.5229 78.5647C60.794 78.1446 59.8535 78.3783 59.4195 79.0906C58.9855 79.8029 59.2275 80.7183 59.9565 81.1412L67.5244 85.5122C68.5122 86.0854 68.8377 87.3235 68.2506 88.2862C67.6663 89.2489 66.3892 89.5661 65.4043 88.9957L58.3789 84.9391C57.6499 84.5189 56.7095 84.7526 56.2755 85.4649C55.8442 86.1772 56.0835 87.0926 56.8125 87.5155L59.7756 89.2266C60.7606 89.797 61.0917 91.0351 60.5046 92.0006C59.9203 92.9633 58.6432 93.2805 57.6583 92.7101L54.1998 90.7124C55.6828 88.481 55.118 85.476 52.881 83.9096C52.2244 83.4505 51.4926 83.1639 50.7442 83.0415C51.5372 80.9714 50.8527 78.5564 48.9273 77.2069C47.7866 76.4084 46.4204 76.133 45.1294 76.3277C44.9013 75.02 44.1668 73.8737 43.0594 73.1002C40.9782 71.6423 38.1486 71.9233 36.4013 73.6483C36.0451 73.039 35.5554 72.4937 34.935 72.0596C33.2044 70.8493 30.959 70.8382 29.2451 71.8565L28.5412 71.4531L38.1931 55.5687L38.6522 55.8331C40.6805 57.0044 43.1596 57.2493 45.455 56.384L48.4042 55.271C50.0931 54.6339 51.0224 54.5921 52.6946 55.3629C51.6012 56.5593 50.9529 58.1313 50.9529 59.8229V66.456C50.9529 68.2172 52.4219 69.6529 54.2277 69.6529H54.2332C56.0445 69.6529 57.7473 68.9657 59.03 67.7164C59.7756 66.9874 60.3293 66.1221 60.6576 65.1734C62.6387 66.3169 79.0127 75.7685 80.9102 76.8647C81.3888 77.1402 81.7255 77.5798 81.8646 78.1056C82.0009 78.6287 81.923 79.1741 81.6392 79.6387L81.6448 79.6443ZM92.7769 69.4442L89.6134 71.2722C88.2222 72.0736 86.422 71.6256 85.5985 70.2706L80.7628 62.3103C80.3315 61.5981 79.3883 61.3643 78.6593 61.7845C77.9304 62.2046 77.6883 63.1228 78.1223 63.835L82.958 71.7953C83.0498 71.9455 83.1472 72.0874 83.2502 72.2266L81.9063 72.9917C81.6336 73.1475 81.3721 73.3228 81.1217 73.5092L60.2709 61.4701C59.2498 60.8802 57.9532 61.598 57.9532 62.7583C57.9365 62.8473 58.1118 64.386 56.8653 65.6019C56.1642 66.2863 55.2293 66.6619 54.2388 66.6619C54.1247 66.6619 54.0301 66.5701 54.0301 66.456V59.8229C54.0301 58.0895 55.2543 56.6288 56.907 56.2198L62.0043 54.9622C63.8545 54.5059 64.9007 55.4686 67.6691 56.384C69.5917 57.1102 71.6812 57.0656 73.5371 56.2921L74.4636 57.8169C74.8948 58.5291 75.838 58.7629 76.567 58.3427C77.296 57.9226 77.5381 57.0044 77.104 56.2921L75.2788 53.29C74.4524 51.9323 74.9143 50.1821 76.3055 49.3753L79.469 47.5473C79.6081 47.4666 79.789 47.5083 79.8752 47.6475L92.8798 69.0464C92.9633 69.1855 92.9188 69.3608 92.7769 69.4414V69.4442Z" fill="white"/>
<path d="M60.2208 41.735H10.1388C9.3709 41.735 8.74765 41.1117 8.74765 40.3438C8.74765 39.5759 9.3709 38.9527 10.1388 38.9527H60.2208C60.9887 38.9527 61.612 39.5759 61.612 40.3438C61.612 41.1117 60.9887 41.735 60.2208 41.735Z" fill="white"/>
<path d="M37.9621 19.5737H10.1388C9.3709 19.5737 8.74765 18.9505 8.74765 18.1825C8.74765 17.4146 9.3709 16.7914 10.1388 16.7914H37.9621C38.7301 16.7914 39.3533 17.4146 39.3533 18.1825C39.3533 18.9505 38.7301 19.5737 37.9621 19.5737Z" fill="white"/>
<path d="M57.4385 30.703H10.1388C9.3709 30.703 8.74765 30.0798 8.74765 29.3119C8.74765 28.5439 9.3709 27.9207 10.1388 27.9207H57.4385C58.2064 27.9207 58.8296 28.5439 58.8296 29.3119C58.8296 30.0798 58.2064 30.703 57.4385 30.703Z" fill="white"/>
<path d="M26.8328 89.132H8.06876C3.61981 89.132 0 85.5122 0 81.0633V8.06876C0 3.61981 3.61981 0 8.06876 0H50.7609C52.1409 0 53.265 1.12406 53.265 2.5041V14.2873C53.265 17.2032 55.6355 19.5737 58.5514 19.5737H67.4632C68.131 19.5737 68.7626 19.8352 69.2356 20.3082C69.7086 20.7812 69.9701 21.41 69.9673 22.0806L69.959 40.444C69.959 41.2119 69.3357 41.8351 68.5678 41.8351C67.7999 41.8351 67.1766 41.2119 67.1766 40.444L67.185 22.3588H58.5514C54.1025 22.3588 50.4826 18.739 50.4826 14.2901V2.78512H8.06876C5.15288 2.78512 2.78233 5.15567 2.78233 8.07155V81.066C2.78233 83.9819 5.15288 86.3525 8.06876 86.3525H26.8328C27.6007 86.3525 28.224 86.9757 28.224 87.7436C28.224 88.5116 27.6007 89.1348 26.8328 89.1348V89.132Z" fill="white"/>
<path d="M68.5706 22.3561C68.1783 22.3561 67.7887 22.1919 67.5133 21.8691L50.8193 2.39281C50.3185 1.80852 50.388 0.932076 50.9696 0.431256C51.5538 -0.0695635 52.4303 -0.00277656 52.9311 0.581513L69.6251 20.0578C70.1259 20.6421 70.0564 21.5186 69.4749 22.0194C69.2133 22.2448 68.8906 22.3533 68.5706 22.3533V22.3561Z" fill="white"/>
</svg>
